<svg xmlns="http://www.w3.org/2000/svg" width="317" height="48" viewBox="0 0 317 48" fill="none"><path fill-rule="evenodd" clip-rule="evenodd" d="M13.3415 0.218282C11.4187 0.7926 9.44688 2.62541 8.9299 4.3192C8.48325 5.78234 8.56768 6.86803 9.50531 11.7282C9.98193 14.1985 10.3719 16.3393 10.3719 16.4856C10.3719 16.6319 9.89824 16.987 9.31962 17.2745C5.86692 18.9909 2.55932 21.9668 1.25351 24.5319C0.165092 26.67 -0.0990906 28.2692 0.0301533 31.9373C0.162121 35.6843 0.612741 37.1035 2.41176 39.4348C5.44701 43.3682 10.2719 45.9955 17.0569 47.4098C20.5341 48.1348 27.4398 48.2046 30.7672 47.5484C37.1392 46.2921 41.9136 43.9868 45.0075 40.6723C47.6907 37.7978 48.5013 35.5774 48.5013 31.1012C48.5013 26.3008 47.6214 24.1292 44.4138 21.0148C43.083 19.7227 41.7093 18.6832 40.3186 17.9159C39.1678 17.2811 38.1554 16.7342 38.0687 16.7007C37.982 16.6674 38.3497 14.3978 38.8855 11.6575C39.9568 6.17899 39.9668 5.32687 38.9823 3.41993C37.4309 0.414664 33.5303 -0.833865 30.474 0.69684C29.2175 1.32609 27.5321 3.20678 27.2125 4.33621C27.0755 4.82061 26.9629 7.21267 26.9621 9.65236L26.9607 14.088H24.2371H21.5136V9.87888C21.5136 4.64634 21.2554 3.60343 19.5447 1.92398C17.892 0.301647 15.3775 -0.389576 13.3415 0.218282ZM17.2441 2.60475C17.8901 2.93384 18.3766 3.46416 18.8517 4.35663L19.5329 5.63675V10.9058V16.1745H24.2371H28.9414L28.9454 10.6958C28.9493 5.46662 28.9748 5.17278 29.5064 4.25188C30.9806 1.69673 34.2679 1.27383 36.3984 3.36524C37.9932 4.9307 38.0125 5.41801 36.7448 12.0403C36.1343 15.2295 35.7166 17.9069 35.8163 17.9896C35.9161 18.0725 36.6106 18.3906 37.3596 18.6966C40.765 20.0876 44.1243 22.8845 45.3564 25.3546C46.3222 27.291 46.5829 28.8394 46.4809 32.035C46.399 34.6023 46.3183 35.0169 45.6235 36.4482C40.6249 46.7449 18.9347 49.5481 7.24206 41.4085C5.23259 40.0098 3.78986 38.3814 2.84752 36.4482C2.09533 34.9049 2.0775 34.7872 2.0775 31.3442C2.0775 27.2236 2.37883 26.0752 4.04241 23.8572C5.37273 22.083 7.62211 20.403 10.5135 19.0237L12.7597 17.9524L11.6926 12.4352C11.1055 9.40081 10.6264 6.58998 10.6279 6.18895C10.6336 4.4993 12.035 2.71364 13.7865 2.16387C14.7283 1.86832 16.1557 2.05036 17.2441 2.60475ZM226.465 11.5493C222.513 12.4897 220.382 14.6735 220.137 18.0324C219.86 21.8368 221.637 24.0315 226.769 26.2206C231.297 28.1521 232.012 28.5351 232.373 29.2212C232.82 30.0685 232.635 31.1163 231.928 31.7443C231.543 32.0867 230.937 32.2148 229.405 32.278C227.143 32.3713 224.939 31.9171 223.019 30.9617C222.367 30.6375 221.734 30.372 221.613 30.372C221.339 30.372 219.093 33.9147 219.093 34.3466C219.093 35.154 221.134 36.2873 223.99 37.0658C225.955 37.6015 232.083 37.8238 233.907 37.4255C235.874 36.9963 237.391 36.1843 238.569 34.9304C239.836 33.5807 240.254 32.4112 240.241 30.2505C240.218 26.3171 238.397 24.5897 231.406 21.8725C229.711 21.2136 228.561 20.613 228.249 20.2241C227.663 19.4931 227.614 18.288 228.14 17.5516C229.053 16.2712 232.654 16.2457 235.4 17.5003C236.267 17.896 237.067 18.2197 237.178 18.2197C237.469 18.2197 239.644 14.7296 239.644 14.2622C239.644 13.6996 238.189 12.689 236.58 12.1339C233.788 11.1707 229.176 10.9043 226.465 11.5493ZM60.2162 11.9022C59.9188 12.0199 59.5566 12.3339 59.4115 12.6C59.2355 12.9228 59.1478 16.9292 59.1478 24.6444C59.1478 35.8812 59.1617 36.2188 59.643 36.6912C60.0808 37.121 60.4682 37.1773 62.9855 37.1773C66.9161 37.1773 66.8232 37.286 66.8232 32.681V29.1568H69.906C74.789 29.1568 77.0199 28.4624 78.9105 26.354C80.2963 24.8087 80.7801 23.2598 80.7682 20.4072C80.7467 15.2582 78.2744 12.5808 72.9098 11.8964C70.6884 11.6128 60.9364 11.6174 60.2162 11.9022ZM175.269 11.9611L174.65 12.2794L174.586 24.2813C174.528 35.1907 174.559 36.324 174.934 36.7304C175.287 37.1137 175.741 37.1773 178.127 37.1773C182.048 37.1773 182.04 37.1844 182.202 33.1712L182.326 30.0935L184.987 33.6418L187.649 37.19L191.425 37.1229C194.988 37.0597 195.204 37.0284 195.265 36.5697C195.308 36.2504 194.429 35.041 192.704 33.0456C191.26 31.3746 189.688 29.5464 189.212 28.9828L188.346 27.9581L191.726 24.1617C196.157 19.1839 196.17 19.3134 191.242 19.3134H187.531L184.881 22.6612L182.231 26.0089L182.155 19.3275C182.085 13.3017 182.035 12.6037 181.637 12.2126C181.278 11.8607 180.696 11.7661 178.542 11.7107C176.713 11.6638 175.696 11.7416 175.269 11.9611ZM72.2569 18.1254C73.5142 19.5074 73.4535 21.8749 72.1299 23.0965C71.5617 23.6207 71.2225 23.698 69.1558 23.7726L66.8232 23.8567V20.5287V17.2006L69.1959 17.2847C71.4926 17.3664 71.5909 17.3934 72.2569 18.1254ZM90.1488 19.084C84.59 20.5527 81.5194 24.748 82.0245 30.1837C82.3253 33.4223 83.5799 35.5545 85.9236 36.8106C88.4193 38.1481 93.1117 37.9109 95.2826 36.3371C95.7518 35.9971 96.2007 35.7191 96.2807 35.7191C96.3606 35.7191 96.552 36.0472 96.7063 36.4482L96.9866 37.1773H99.5875C101.018 37.1773 102.365 37.111 102.58 37.0298C102.926 36.8995 102.972 35.9568 102.972 28.9237V20.9652L101.264 20.1928C100.326 19.7677 98.7935 19.2614 97.8601 19.0672C95.7228 18.6227 91.8629 18.631 90.1488 19.084ZM116.015 19.1839C115.223 19.4325 114.136 19.9203 113.601 20.2681L112.628 20.9001V20.3376C112.628 19.3594 112.19 19.1919 109.628 19.1919C108.304 19.1919 107.045 19.2583 106.83 19.3395C106.483 19.47 106.438 20.4553 106.438 27.9299C106.438 35.8007 106.469 36.4001 106.891 36.7751C107.257 37.1003 107.889 37.1773 110.195 37.1773C114.209 37.1773 113.958 37.6056 114.114 30.4768C114.251 24.1746 114.256 24.1574 115.912 23.8934C117.179 23.6917 117.944 23.941 118.28 24.6661C118.474 25.0843 118.57 27.0953 118.57 30.748C118.57 37.5737 118.335 37.1773 122.381 37.1773C126.601 37.1773 126.292 37.7867 126.199 29.641C126.126 23.279 126.096 22.9108 125.572 21.9498C124.883 20.685 123.51 19.5594 122.068 19.0772C120.576 18.578 117.79 18.6271 116.015 19.1839ZM136.232 19.0517C133.129 19.7905 130.761 21.6209 129.504 24.2534C128.909 25.4997 128.846 25.9019 128.852 28.4277C128.86 31.8731 129.333 33.1226 131.337 34.9826C133.487 36.9793 135.685 37.6634 139.947 37.6634C141.416 37.6634 143.104 37.5069 143.959 37.2916C145.729 36.8451 148.021 35.7912 148.197 35.3428C148.312 35.0466 147.064 32.609 146.215 31.4738C145.863 31.0032 145.837 31.0064 144.495 31.6728C142.188 32.8183 139.322 32.9092 137.908 31.8816C136.388 30.7772 135.899 27.8888 136.892 25.8757C137.959 23.7136 140.824 23.1638 143.806 24.5489C144.681 24.955 145.517 25.2416 145.663 25.1852C146.138 25.0027 148.046 21.4496 147.887 21.0432C147.675 20.5005 144.952 19.2422 143.358 18.9501C141.569 18.6225 137.811 18.6759 136.232 19.0517ZM158.185 19.0925C152.668 20.5301 149.606 24.7363 150.113 30.1837C150.414 33.4223 151.668 35.5545 154.012 36.8106C156.51 38.1495 161.444 37.8924 163.342 36.3245C164.283 35.548 164.454 35.5625 164.795 36.4482L165.075 37.1773H167.676C169.106 37.1773 170.453 37.111 170.668 37.0298C171.015 36.8995 171.06 35.9568 171.06 28.9237V20.9652L169.353 20.1928C168.414 19.7677 166.882 19.2614 165.948 19.0672C163.796 18.6196 159.953 18.6322 158.185 19.0925ZM203.313 19.0663C200.386 19.8725 198.27 21.4863 197.294 23.6586C196.649 25.0928 196.227 27.787 196.399 29.3739C196.633 31.546 197.247 32.944 198.608 34.4064C200.747 36.7036 203.397 37.6634 207.598 37.6634C210.708 37.6634 212.332 37.372 214.326 36.456C215.493 35.9201 215.875 35.6206 215.875 35.242C215.875 34.7262 214.521 32.182 214.115 31.9361C213.991 31.8605 213.175 32.0792 212.302 32.4221C211.078 32.9026 210.277 33.0456 208.805 33.0456C205.668 33.0456 204.258 32.3808 203.757 30.6654L203.536 29.9088L209.944 29.8366C217.554 29.7508 217.265 29.8544 217.185 27.2406C217.075 23.6824 214.956 20.6164 211.789 19.433C209.871 18.7163 205.301 18.5184 203.313 19.0663ZM279.878 19.0439C274.557 20.3192 271.583 23.9984 271.583 29.3039C271.583 32.0308 272.328 34.0515 273.903 35.5975C275.655 37.3176 277.016 37.7529 280.211 37.6151C282.186 37.53 282.824 37.3995 283.883 36.8633C284.589 36.5063 285.236 36.1028 285.322 35.9667C285.592 35.537 285.918 35.695 286.315 36.4482L286.699 37.1773H289.367C291.111 37.1773 292.137 37.0765 292.331 36.8857C292.55 36.6708 292.629 34.5335 292.629 28.7796V20.9652L290.957 20.222C290.038 19.8134 288.484 19.3049 287.504 19.0923C285.426 18.6417 281.656 18.6176 279.878 19.0439ZM301.242 19.2019C300.191 19.4554 298.548 20.0504 297.59 20.5241L295.847 21.3854V32.5626C295.847 45.9875 295.451 44.7137 299.623 44.7081C301.155 44.7059 302.531 44.624 302.681 44.5258C303.351 44.0864 303.523 43.1611 303.523 39.9821V36.6789L304.327 37.1103C304.966 37.453 305.719 37.5419 307.979 37.5419C311.51 37.5419 312.803 37.0646 314.652 35.0786C316.486 33.1083 316.997 31.6099 317 28.1846C317.002 25.6237 316.943 25.2625 316.295 23.8713C315.521 22.2091 314.099 20.7537 312.434 19.9203C309.946 18.6742 304.798 18.3437 301.242 19.2019ZM242.238 19.4427C242.088 19.6814 246.869 35.861 247.353 36.752C247.55 37.1154 247.96 37.1773 250.161 37.1773C252.479 37.1773 252.774 37.1273 253.094 36.6786C253.289 36.4045 253.986 34.7087 254.642 32.9104C255.297 31.1119 255.905 29.7231 255.993 29.824C256.08 29.9248 256.629 31.3199 257.213 32.924C258.896 37.5499 258.518 37.1773 261.532 37.1773C263.376 37.1773 264.172 37.0857 264.371 36.8504C264.764 36.3855 269.804 19.8625 269.665 19.4957C269.501 19.0658 263.574 19.0658 263.231 19.4957C263.098 19.6629 262.513 21.6904 261.931 24.0016C261.349 26.3125 260.834 28.1647 260.786 28.1176C260.738 28.0704 260.102 26.4529 259.373 24.5234L258.047 21.0148L256.064 20.9448C254.667 20.8954 254.007 20.9674 253.833 21.1878C253.697 21.3599 253.165 22.6493 252.65 24.0528C252.136 25.4564 251.55 26.9876 251.349 27.4555L250.982 28.3062L249.939 24.0412C249.365 21.6955 248.813 19.645 248.712 19.4841C248.476 19.1098 242.472 19.0716 242.238 19.4427ZM208.835 23.4365C209.63 23.7624 210.428 24.9196 210.428 25.7464C210.428 25.9068 209.174 25.9972 206.945 25.9972H203.461L203.628 25.4504C204.252 23.3983 206.563 22.5046 208.835 23.4365ZM95.7365 27.5284L95.805 31.1255L95.0746 31.8425C94.1026 32.7967 92.0179 32.9221 90.8398 32.0969C89.1648 30.9235 89.2738 26.6073 91.0196 24.9684C91.976 24.0708 92.7287 23.8217 94.3061 23.8805L95.6679 23.9313L95.7365 27.5284ZM163.824 27.4954C163.89 30.9148 163.87 31.0856 163.322 31.7107C162.265 32.917 159.563 32.9291 158.515 31.7324C157.451 30.5184 157.522 26.9983 158.64 25.5111C159.577 24.265 160.635 23.7831 162.261 23.8604L163.756 23.9313L163.824 27.4954ZM285.057 23.9573C285.605 24.1639 285.632 30.2906 285.089 31.3221C284.417 32.5971 281.793 33.0577 280.514 32.1254C279.571 31.4385 279.266 30.6678 279.262 28.9587C279.255 25.8179 280.905 23.8173 283.509 23.812C284.145 23.8108 284.841 23.8762 285.057 23.9573ZM307.467 24.2356C307.934 24.4692 308.53 24.948 308.792 25.2997C309.399 26.1119 309.627 28.6481 309.225 30.1066C308.631 32.2603 306.673 33.2842 304.833 32.4022C303.567 31.7951 303.306 30.9303 303.289 27.2854C303.277 24.7088 303.332 24.2876 303.708 24.0723C304.401 23.6761 306.534 23.769 307.467 24.2356ZM14.0692 25.5286C12.4083 27.2739 12.9966 31.4918 14.9687 31.9776C17.0294 32.4853 18.5095 30.0714 17.9458 27.122C17.715 25.9148 16.5654 24.782 15.5714 24.782C15.0068 24.782 14.5758 24.9961 14.0692 25.5286ZM31.1532 25.5286C29.4923 27.2739 30.0806 31.4918 32.0527 31.9776C34.1134 32.4853 35.5935 30.0714 35.0297 27.122C34.799 25.9148 33.6494 24.782 32.6553 24.782C32.0908 24.782 31.6597 24.9961 31.1532 25.5286Z" fill="white"></path></svg>